<svg width="46" height="43" viewBox="0 0 46 43" fill="none" xmlns="http://www.w3.org/2000/svg">
<rect x="1" y="1" width="44" height="41" rx="9" stroke="#FFE645" stroke-width="2"/>
<path d="M15.7702 31.9089L17.1049 25.2445C17.1688 24.9252 17.0733 24.5948 16.8489 24.3589L11.8035 19.055C11.5006 18.7366 11.7263 18.2104 12.1657 18.2104H19.3958C19.8199 18.2104 20.1978 17.943 20.3389 17.5431L22.5597 11.2481C22.713 10.8136 23.3226 10.8001 23.4949 11.2275L26.0579 17.5843C26.2105 17.9627 26.5775 18.2104 26.9854 18.2104H33.8841C34.3159 18.2104 34.5447 18.7209 34.2573 19.0432L29.1087 24.8163C28.909 25.0403 28.8204 25.3421 28.8674 25.6385L29.8637 31.9229C29.9307 32.3453 29.4707 32.6514 29.1069 32.4264L23.5112 28.9662C23.1966 28.7717 22.8004 28.7667 22.481 28.9532L16.5127 32.4388C16.1402 32.6563 15.6855 32.3318 15.7702 31.9089Z" fill="#FFE645" stroke="#FFE645" stroke-width="2"/>
</svg>
